<svg aria-labelledby="chart-title-mermaid-1683060912743" aria-roledescription="er" role="graphics-document document" viewBox="0 -62 204.8828125 426" style="max-width: 204.883px; background-color: rgb(0, 43, 54);" xmlns:xlink="http://www.w3.org/1999/xlink" xmlns="http://www.w3.org/2000/svg" width="100%" id="mermaid-1683060912743"><title id="chart-title-mermaid-1683060912743">npm-registry-proxy</title><style>#mermaid-1683060912743{font-family:"trebuchet ms",verdana,arial,sans-serif;font-size:16px;fill:#ccc;}#mermaid-1683060912743 .error-icon{fill:#a44141;}#mermaid-1683060912743 .error-text{fill:#ddd;stroke:#ddd;}#mermaid-1683060912743 .edge-thickness-normal{stroke-width:2px;}#mermaid-1683060912743 .edge-thickness-thick{stroke-width:3.5px;}#mermaid-1683060912743 .edge-pattern-solid{stroke-dasharray:0;}#mermaid-1683060912743 .edge-pattern-dashed{stroke-dasharray:3;}#mermaid-1683060912743 .edge-pattern-dotted{stroke-dasharray:2;}#mermaid-1683060912743 .marker{fill:lightgrey;stroke:lightgrey;}#mermaid-1683060912743 .marker.cross{stroke:lightgrey;}#mermaid-1683060912743 svg{font-family:"trebuchet ms",verdana,arial,sans-serif;font-size:16px;}#mermaid-1683060912743 .entityBox{fill:#1f2020;stroke:#81B1DB;}#mermaid-1683060912743 .attributeBoxOdd{fill:hsl(0, 0%, 32%);stroke:#81B1DB;}#mermaid-1683060912743 .attributeBoxEven{fill:hsl(0, 0%, 22%);stroke:#81B1DB;}#mermaid-1683060912743 .relationshipLabelBox{fill:hsl(20, 1.5873015873%, 12.3529411765%);opacity:0.7;background-color:hsl(20, 1.5873015873%, 12.3529411765%);}#mermaid-1683060912743 .relationshipLabelBox rect{opacity:0.5;}#mermaid-1683060912743 .relationshipLine{stroke:lightgrey;}#mermaid-1683060912743 .entityTitleText{text-anchor:middle;font-size:18px;fill:#ccc;}#mermaid-1683060912743 :root{--mermaid-font-family:"trebuchet ms",verdana,arial,sans-serif;}</style><g/><defs><marker orient="auto" markerHeight="18" markerWidth="18" refY="9" refX="0" id="ONLY_ONE_START"><path d="M9,0 L9,18 M15,0 L15,18" fill="none" stroke="gray"/></marker></defs><defs><marker orient="auto" markerHeight="18" markerWidth="18" refY="9" refX="18" id="ONLY_ONE_END"><path d="M3,0 L3,18 M9,0 L9,18" fill="none" stroke="gray"/></marker></defs><defs><marker orient="auto" markerHeight="18" markerWidth="30" refY="9" refX="0" id="ZERO_OR_ONE_START"><circle r="6" cy="9" cx="21" fill="white" stroke="gray"/><path d="M9,0 L9,18" fill="none" stroke="gray"/></marker></defs><defs><marker orient="auto" markerHeight="18" markerWidth="30" refY="9" refX="30" id="ZERO_OR_ONE_END"><circle r="6" cy="9" cx="9" fill="white" stroke="gray"/><path d="M21,0 L21,18" fill="none" stroke="gray"/></marker></defs><defs><marker orient="auto" markerHeight="36" markerWidth="45" refY="18" refX="18" id="ONE_OR_MORE_START"><path d="M0,18 Q 18,0 36,18 Q 18,36 0,18 M42,9 L42,27" fill="none" stroke="gray"/></marker></defs><defs><marker orient="auto" markerHeight="36" markerWidth="45" refY="18" refX="27" id="ONE_OR_MORE_END"><path d="M3,9 L3,27 M9,18 Q27,0 45,18 Q27,36 9,18" fill="none" stroke="gray"/></marker></defs><defs><marker orient="auto" markerHeight="36" markerWidth="57" refY="18" refX="18" id="ZERO_OR_MORE_START"><circle r="6" cy="18" cx="48" fill="white" stroke="gray"/><path d="M0,18 Q18,0 36,18 Q18,36 0,18" fill="none" stroke="gray"/></marker></defs><defs><marker orient="auto" markerHeight="36" markerWidth="57" refY="18" refX="39" id="ZERO_OR_MORE_END"><circle r="6" cy="18" cx="9" fill="white" stroke="gray"/><path d="M21,18 Q39,0 57,18 Q39,36 21,18" fill="none" stroke="gray"/></marker></defs><path style="stroke: gray; fill: none;" marker-start="url(#ONLY_ONE_START)" marker-end="url(#ZERO_OR_ONE_END)" d="M102.44140625,110L102.44140625,118.33333333333333C102.44140625,126.66666666666667,102.44140625,143.33333333333334,102.44140625,160C102.44140625,176.66666666666666,102.44140625,193.33333333333334,102.44140625,201.66666666666666L102.44140625,210" class="er relationshipLine"/><g transform="translate(20,20 )" id="entity-REQ-586807b8-0410-5a56-a7fc-be074c8fbd59"><rect height="90" width="164.8828125" y="0" x="0" class="er entityBox"/><text style="dominant-baseline: middle; text-anchor: middle; font-size: 12px;" transform="translate(82.44140625,12)" y="0" x="0" id="text-entity-REQ-586807b8-0410-5a56-a7fc-be074c8fbd59" class="er entityLabel">REQ</text><rect height="22" width="35.7421875" y="24" x="0" class="er attributeBoxOdd"/><text style="dominant-baseline: middle; font-size: 10.2px;" transform="translate(5,35)" y="0" x="0" id="text-entity-REQ-586807b8-0410-5a56-a7fc-be074c8fbd59-attr-1-type" class="er entityLabel">UUID</text><rect height="22" width="58.671875" y="24" x="35.7421875" class="er attributeBoxOdd"/><text style="dominant-baseline: middle; font-size: 10.2px;" transform="translate(40.7421875,35)" y="0" x="0" id="text-entity-REQ-586807b8-0410-5a56-a7fc-be074c8fbd59-attr-1-name" class="er entityLabel">id</text><rect height="22" width="21.5625" y="24" x="94.4140625" class="er attributeBoxOdd"/><text style="dominant-baseline: middle; font-size: 10.2px;" transform="translate(99.4140625,35)" y="0" x="0" id="text-entity-REQ-586807b8-0410-5a56-a7fc-be074c8fbd59-attr-1-key" class="er entityLabel">PK</text><rect height="22" width="48.90625" y="24" x="115.9765625" class="er attributeBoxOdd"/><text style="dominant-baseline: middle; font-size: 10.2px;" transform="translate(120.9765625,35)" y="0" x="0" id="text-entity-REQ-586807b8-0410-5a56-a7fc-be074c8fbd59-attr-1-comment" class="er entityLabel">required</text><rect height="22" width="35.7421875" y="46" x="0" class="er attributeBoxEven"/><text style="dominant-baseline: middle; font-size: 10.2px;" transform="translate(5,57)" y="0" x="0" id="text-entity-REQ-586807b8-0410-5a56-a7fc-be074c8fbd59-attr-2-type" class="er entityLabel">jsonb</text><rect height="22" width="58.671875" y="46" x="35.7421875" class="er attributeBoxEven"/><text style="dominant-baseline: middle; font-size: 10.2px;" transform="translate(40.7421875,57)" y="0" x="0" id="text-entity-REQ-586807b8-0410-5a56-a7fc-be074c8fbd59-attr-2-name" class="er entityLabel">headers</text><rect height="22" width="21.5625" y="46" x="94.4140625" class="er attributeBoxEven"/><text style="dominant-baseline: middle; font-size: 10.2px;" transform="translate(99.4140625,57)" y="0" x="0" id="text-entity-REQ-586807b8-0410-5a56-a7fc-be074c8fbd59-attr-2-key" class="er entityLabel"/><rect height="22" width="48.90625" y="46" x="115.9765625" class="er attributeBoxEven"/><text style="dominant-baseline: middle; font-size: 10.2px;" transform="translate(120.9765625,57)" y="0" x="0" id="text-entity-REQ-586807b8-0410-5a56-a7fc-be074c8fbd59-attr-2-comment" class="er entityLabel"/><rect height="22" width="35.7421875" y="68" x="0" class="er attributeBoxOdd"/><text style="dominant-baseline: middle; font-size: 10.2px;" transform="translate(5,79)" y="0" x="0" id="text-entity-REQ-586807b8-0410-5a56-a7fc-be074c8fbd59-attr-3-type" class="er entityLabel">string</text><rect height="22" width="58.671875" y="68" x="35.7421875" class="er attributeBoxOdd"/><text style="dominant-baseline: middle; font-size: 10.2px;" transform="translate(40.7421875,79)" y="0" x="0" id="text-entity-REQ-586807b8-0410-5a56-a7fc-be074c8fbd59-attr-3-name" class="er entityLabel">timestamp</text><rect height="22" width="21.5625" y="68" x="94.4140625" class="er attributeBoxOdd"/><text style="dominant-baseline: middle; font-size: 10.2px;" transform="translate(99.4140625,79)" y="0" x="0" id="text-entity-REQ-586807b8-0410-5a56-a7fc-be074c8fbd59-attr-3-key" class="er entityLabel"/><rect height="22" width="48.90625" y="68" x="115.9765625" class="er attributeBoxOdd"/><text style="dominant-baseline: middle; font-size: 10.2px;" transform="translate(120.9765625,79)" y="0" x="0" id="text-entity-REQ-586807b8-0410-5a56-a7fc-be074c8fbd59-attr-3-comment" class="er entityLabel">required</text></g><g transform="translate(20,210 )" id="entity-RES-d08bc98e-e334-50d4-8cfd-729e15640d80"><rect height="134" width="164.8828125" y="0" x="0" class="er entityBox"/><text style="dominant-baseline: middle; text-anchor: middle; font-size: 12px;" transform="translate(82.44140625,12)" y="0" x="0" id="text-entity-RES-d08bc98e-e334-50d4-8cfd-729e15640d80" class="er entityLabel">RES</text><rect height="22" width="35.7421875" y="24" x="0" class="er attributeBoxOdd"/><text style="dominant-baseline: middle; font-size: 10.2px;" transform="translate(5,35)" y="0" x="0" id="text-entity-RES-d08bc98e-e334-50d4-8cfd-729e15640d80-attr-1-type" class="er entityLabel">UUID</text><rect height="22" width="58.671875" y="24" x="35.7421875" class="er attributeBoxOdd"/><text style="dominant-baseline: middle; font-size: 10.2px;" transform="translate(40.7421875,35)" y="0" x="0" id="text-entity-RES-d08bc98e-e334-50d4-8cfd-729e15640d80-attr-1-name" class="er entityLabel">id</text><rect height="22" width="21.5625" y="24" x="94.4140625" class="er attributeBoxOdd"/><text style="dominant-baseline: middle; font-size: 10.2px;" transform="translate(99.4140625,35)" y="0" x="0" id="text-entity-RES-d08bc98e-e334-50d4-8cfd-729e15640d80-attr-1-key" class="er entityLabel">PK</text><rect height="22" width="48.90625" y="24" x="115.9765625" class="er attributeBoxOdd"/><text style="dominant-baseline: middle; font-size: 10.2px;" transform="translate(120.9765625,35)" y="0" x="0" id="text-entity-RES-d08bc98e-e334-50d4-8cfd-729e15640d80-attr-1-comment" class="er entityLabel">required</text><rect height="22" width="35.7421875" y="46" x="0" class="er attributeBoxEven"/><text style="dominant-baseline: middle; font-size: 10.2px;" transform="translate(5,57)" y="0" x="0" id="text-entity-RES-d08bc98e-e334-50d4-8cfd-729e15640d80-attr-2-type" class="er entityLabel">UUID</text><rect height="22" width="58.671875" y="46" x="35.7421875" class="er attributeBoxEven"/><text style="dominant-baseline: middle; font-size: 10.2px;" transform="translate(40.7421875,57)" y="0" x="0" id="text-entity-RES-d08bc98e-e334-50d4-8cfd-729e15640d80-attr-2-name" class="er entityLabel">request_id</text><rect height="22" width="21.5625" y="46" x="94.4140625" class="er attributeBoxEven"/><text style="dominant-baseline: middle; font-size: 10.2px;" transform="translate(99.4140625,57)" y="0" x="0" id="text-entity-RES-d08bc98e-e334-50d4-8cfd-729e15640d80-attr-2-key" class="er entityLabel">FK</text><rect height="22" width="48.90625" y="46" x="115.9765625" class="er attributeBoxEven"/><text style="dominant-baseline: middle; font-size: 10.2px;" transform="translate(120.9765625,57)" y="0" x="0" id="text-entity-RES-d08bc98e-e334-50d4-8cfd-729e15640d80-attr-2-comment" class="er entityLabel">req(id)</text><rect height="22" width="35.7421875" y="68" x="0" class="er attributeBoxOdd"/><text style="dominant-baseline: middle; font-size: 10.2px;" transform="translate(5,79)" y="0" x="0" id="text-entity-RES-d08bc98e-e334-50d4-8cfd-729e15640d80-attr-3-type" class="er entityLabel">jsonb</text><rect height="22" width="58.671875" y="68" x="35.7421875" class="er attributeBoxOdd"/><text style="dominant-baseline: middle; font-size: 10.2px;" transform="translate(40.7421875,79)" y="0" x="0" id="text-entity-RES-d08bc98e-e334-50d4-8cfd-729e15640d80-attr-3-name" class="er entityLabel">headers</text><rect height="22" width="21.5625" y="68" x="94.4140625" class="er attributeBoxOdd"/><text style="dominant-baseline: middle; font-size: 10.2px;" transform="translate(99.4140625,79)" y="0" x="0" id="text-entity-RES-d08bc98e-e334-50d4-8cfd-729e15640d80-attr-3-key" class="er entityLabel"/><rect height="22" width="48.90625" y="68" x="115.9765625" class="er attributeBoxOdd"/><text style="dominant-baseline: middle; font-size: 10.2px;" transform="translate(120.9765625,79)" y="0" x="0" id="text-entity-RES-d08bc98e-e334-50d4-8cfd-729e15640d80-attr-3-comment" class="er entityLabel"/><rect height="22" width="35.7421875" y="90" x="0" class="er attributeBoxEven"/><text style="dominant-baseline: middle; font-size: 10.2px;" transform="translate(5,101)" y="0" x="0" id="text-entity-RES-d08bc98e-e334-50d4-8cfd-729e15640d80-attr-4-type" class="er entityLabel">string</text><rect height="22" width="58.671875" y="90" x="35.7421875" class="er attributeBoxEven"/><text style="dominant-baseline: middle; font-size: 10.2px;" transform="translate(40.7421875,101)" y="0" x="0" id="text-entity-RES-d08bc98e-e334-50d4-8cfd-729e15640d80-attr-4-name" class="er entityLabel">timestamp</text><rect height="22" width="21.5625" y="90" x="94.4140625" class="er attributeBoxEven"/><text style="dominant-baseline: middle; font-size: 10.2px;" transform="translate(99.4140625,101)" y="0" x="0" id="text-entity-RES-d08bc98e-e334-50d4-8cfd-729e15640d80-attr-4-key" class="er entityLabel"/><rect height="22" width="48.90625" y="90" x="115.9765625" class="er attributeBoxEven"/><text style="dominant-baseline: middle; font-size: 10.2px;" transform="translate(120.9765625,101)" y="0" x="0" id="text-entity-RES-d08bc98e-e334-50d4-8cfd-729e15640d80-attr-4-comment" class="er entityLabel">required</text><rect height="22" width="35.7421875" y="112" x="0" class="er attributeBoxOdd"/><text style="dominant-baseline: middle; font-size: 10.2px;" transform="translate(5,123)" y="0" x="0" id="text-entity-RES-d08bc98e-e334-50d4-8cfd-729e15640d80-attr-5-type" class="er entityLabel">jsonb</text><rect height="22" width="58.671875" y="112" x="35.7421875" class="er attributeBoxOdd"/><text style="dominant-baseline: middle; font-size: 10.2px;" transform="translate(40.7421875,123)" y="0" x="0" id="text-entity-RES-d08bc98e-e334-50d4-8cfd-729e15640d80-attr-5-name" class="er entityLabel">body</text><rect height="22" width="21.5625" y="112" x="94.4140625" class="er attributeBoxOdd"/><text style="dominant-baseline: middle; font-size: 10.2px;" transform="translate(99.4140625,123)" y="0" x="0" id="text-entity-RES-d08bc98e-e334-50d4-8cfd-729e15640d80-attr-5-key" class="er entityLabel"/><rect height="22" width="48.90625" y="112" x="115.9765625" class="er attributeBoxOdd"/><text style="dominant-baseline: middle; font-size: 10.2px;" transform="translate(120.9765625,123)" y="0" x="0" id="text-entity-RES-d08bc98e-e334-50d4-8cfd-729e15640d80-attr-5-comment" class="er entityLabel"/></g><rect height="14" width="82.0546875" y="153" x="61.4140625" class="er relationshipLabelBox"/><text style="text-anchor: middle; dominant-baseline: middle; font-size: 12px;" y="160" x="102.44140625" id="rel1" class="er relationshipLabel">is handled with</text><text class="entityTitleText" y="-25" x="102.44140625">npm-registry-proxy</text></svg>