<svg aria-labelledby="chart-title-mermaid-1684033245262" aria-roledescription="er" role="graphics-document document" viewBox="0 -62 548.96875 660" style="max-width: 548.969px; background-color: rgb(0, 43, 54);" xmlns:xlink="http://www.w3.org/1999/xlink" xmlns="http://www.w3.org/2000/svg" width="100%" id="mermaid-1684033245262"><title id="chart-title-mermaid-1684033245262">npm-registry-proxy</title><style>#mermaid-1684033245262{font-family:"trebuchet ms",verdana,arial,sans-serif;font-size:16px;fill:#ccc;}#mermaid-1684033245262 .error-icon{fill:#a44141;}#mermaid-1684033245262 .error-text{fill:#ddd;stroke:#ddd;}#mermaid-1684033245262 .edge-thickness-normal{stroke-width:2px;}#mermaid-1684033245262 .edge-thickness-thick{stroke-width:3.5px;}#mermaid-1684033245262 .edge-pattern-solid{stroke-dasharray:0;}#mermaid-1684033245262 .edge-pattern-dashed{stroke-dasharray:3;}#mermaid-1684033245262 .edge-pattern-dotted{stroke-dasharray:2;}#mermaid-1684033245262 .marker{fill:lightgrey;stroke:lightgrey;}#mermaid-1684033245262 .marker.cross{stroke:lightgrey;}#mermaid-1684033245262 svg{font-family:"trebuchet ms",verdana,arial,sans-serif;font-size:16px;}#mermaid-1684033245262 .entityBox{fill:#1f2020;stroke:#81B1DB;}#mermaid-1684033245262 .attributeBoxOdd{fill:hsl(0, 0%, 32%);stroke:#81B1DB;}#mermaid-1684033245262 .attributeBoxEven{fill:hsl(0, 0%, 22%);stroke:#81B1DB;}#mermaid-1684033245262 .relationshipLabelBox{fill:hsl(20, 1.5873015873%, 12.3529411765%);opacity:0.7;background-color:hsl(20, 1.5873015873%, 12.3529411765%);}#mermaid-1684033245262 .relationshipLabelBox rect{opacity:0.5;}#mermaid-1684033245262 .relationshipLine{stroke:lightgrey;}#mermaid-1684033245262 .entityTitleText{text-anchor:middle;font-size:18px;fill:#ccc;}#mermaid-1684033245262 :root{--mermaid-font-family:"trebuchet ms",verdana,arial,sans-serif;}</style><g/><defs><marker orient="auto" markerHeight="18" markerWidth="18" refY="9" refX="0" id="ONLY_ONE_START"><path d="M9,0 L9,18 M15,0 L15,18" fill="none" stroke="gray"/></marker></defs><defs><marker orient="auto" markerHeight="18" markerWidth="18" refY="9" refX="18" id="ONLY_ONE_END"><path d="M3,0 L3,18 M9,0 L9,18" fill="none" stroke="gray"/></marker></defs><defs><marker orient="auto" markerHeight="18" markerWidth="30" refY="9" refX="0" id="ZERO_OR_ONE_START"><circle r="6" cy="9" cx="21" fill="white" stroke="gray"/><path d="M9,0 L9,18" fill="none" stroke="gray"/></marker></defs><defs><marker orient="auto" markerHeight="18" markerWidth="30" refY="9" refX="30" id="ZERO_OR_ONE_END"><circle r="6" cy="9" cx="9" fill="white" stroke="gray"/><path d="M21,0 L21,18" fill="none" stroke="gray"/></marker></defs><defs><marker orient="auto" markerHeight="36" markerWidth="45" refY="18" refX="18" id="ONE_OR_MORE_START"><path d="M0,18 Q 18,0 36,18 Q 18,36 0,18 M42,9 L42,27" fill="none" stroke="gray"/></marker></defs><defs><marker orient="auto" markerHeight="36" markerWidth="45" refY="18" refX="27" id="ONE_OR_MORE_END"><path d="M3,9 L3,27 M9,18 Q27,0 45,18 Q27,36 9,18" fill="none" stroke="gray"/></marker></defs><defs><marker orient="auto" markerHeight="36" markerWidth="57" refY="18" refX="18" id="ZERO_OR_MORE_START"><circle r="6" cy="18" cx="48" fill="white" stroke="gray"/><path d="M0,18 Q18,0 36,18 Q18,36 0,18" fill="none" stroke="gray"/></marker></defs><defs><marker orient="auto" markerHeight="36" markerWidth="57" refY="18" refX="39" id="ZERO_OR_MORE_END"><circle r="6" cy="18" cx="9" fill="white" stroke="gray"/><path d="M21,18 Q39,0 57,18 Q39,36 21,18" fill="none" stroke="gray"/></marker></defs><path style="stroke: gray; fill: none;" marker-start="url(#ONLY_ONE_START)" marker-end="url(#ZERO_OR_MORE_END)" stroke-dasharray="8,8" d="M198.97902960526318,110L185.62445175438597,118.33333333333333C172.2698739035088,126.66666666666667,145.56071820175438,143.33333333333334,132.20614035087718,161.83333333333334C118.8515625,180.33333333333334,118.8515625,200.66666666666666,118.8515625,210.83333333333334L118.8515625,221" class="er relationshipLine"/><path style="stroke: gray; fill: none;" marker-start="url(#ONLY_ONE_START)" marker-end="url(#ZERO_OR_MORE_END)" stroke-dasharray="8,8" d="M343.2084703947368,110L356.563048245614,118.33333333333333C369.91762609649123,126.66666666666667,396.62678179824564,143.33333333333334,409.9813596491228,160C423.3359375,176.66666666666666,423.3359375,193.33333333333334,423.3359375,201.66666666666666L423.3359375,210" class="er relationshipLine"/><path style="stroke: gray; fill: none;" marker-start="url(#ONLY_ONE_START)" marker-end="url(#ONLY_ONE_END)" stroke-dasharray="8,8" d="M423.3359375,344L423.3359375,352.3333333333333C423.3359375,360.6666666666667,423.3359375,377.3333333333333,423.3359375,394C423.3359375,410.6666666666667,423.3359375,427.3333333333333,423.3359375,435.6666666666667L423.3359375,444" class="er relationshipLine"/><g transform="translate(172.49609375,20 )" id="entity-User-818c511a-4a32-5484-ba70-875d765a9175"><rect height="90" width="197.1953125" y="0" x="0" class="er entityBox"/><text style="dominant-baseline: middle; text-anchor: middle; font-size: 12px;" transform="translate(98.59765625,12)" y="0" x="0" id="text-entity-User-818c511a-4a32-5484-ba70-875d765a9175" class="er entityLabel">User</text><rect height="22" width="37.3203125" y="24" x="0" class="er attributeBoxOdd"/><text style="dominant-baseline: middle; font-size: 10.2px;" transform="translate(5,35)" y="0" x="0" id="text-entity-User-818c511a-4a32-5484-ba70-875d765a9175-attr-1-type" class="er entityLabel">biging</text><rect height="22" width="45.0390625" y="24" x="37.3203125" class="er attributeBoxOdd"/><text style="dominant-baseline: middle; font-size: 10.2px;" transform="translate(42.3203125,35)" y="0" x="0" id="text-entity-User-818c511a-4a32-5484-ba70-875d765a9175-attr-1-name" class="er entityLabel">id</text><rect height="22" width="21.5625" y="24" x="82.359375" class="er attributeBoxOdd"/><text style="dominant-baseline: middle; font-size: 10.2px;" transform="translate(87.359375,35)" y="0" x="0" id="text-entity-User-818c511a-4a32-5484-ba70-875d765a9175-attr-1-key" class="er entityLabel">PK</text><rect height="22" width="93.2734375" y="24" x="103.921875" class="er attributeBoxOdd"/><text style="dominant-baseline: middle; font-size: 10.2px;" transform="translate(108.921875,35)" y="0" x="0" id="text-entity-User-818c511a-4a32-5484-ba70-875d765a9175-attr-1-comment" class="er entityLabel">server-generated</text><rect height="22" width="37.3203125" y="46" x="0" class="er attributeBoxEven"/><text style="dominant-baseline: middle; font-size: 10.2px;" transform="translate(5,57)" y="0" x="0" id="text-entity-User-818c511a-4a32-5484-ba70-875d765a9175-attr-2-type" class="er entityLabel">string</text><rect height="22" width="45.0390625" y="46" x="37.3203125" class="er attributeBoxEven"/><text style="dominant-baseline: middle; font-size: 10.2px;" transform="translate(42.3203125,57)" y="0" x="0" id="text-entity-User-818c511a-4a32-5484-ba70-875d765a9175-attr-2-name" class="er entityLabel">email</text><rect height="22" width="21.5625" y="46" x="82.359375" class="er attributeBoxEven"/><text style="dominant-baseline: middle; font-size: 10.2px;" transform="translate(87.359375,57)" y="0" x="0" id="text-entity-User-818c511a-4a32-5484-ba70-875d765a9175-attr-2-key" class="er entityLabel"/><rect height="22" width="93.2734375" y="46" x="103.921875" class="er attributeBoxEven"/><text style="dominant-baseline: middle; font-size: 10.2px;" transform="translate(108.921875,57)" y="0" x="0" id="text-entity-User-818c511a-4a32-5484-ba70-875d765a9175-attr-2-comment" class="er entityLabel">NOT NULL UNIQUE</text><rect height="22" width="37.3203125" y="68" x="0" class="er attributeBoxOdd"/><text style="dominant-baseline: middle; font-size: 10.2px;" transform="translate(5,79)" y="0" x="0" id="text-entity-User-818c511a-4a32-5484-ba70-875d765a9175-attr-3-type" class="er entityLabel">UUID</text><rect height="22" width="45.0390625" y="68" x="37.3203125" class="er attributeBoxOdd"/><text style="dominant-baseline: middle; font-size: 10.2px;" transform="translate(42.3203125,79)" y="0" x="0" id="text-entity-User-818c511a-4a32-5484-ba70-875d765a9175-attr-3-name" class="er entityLabel">api_key</text><rect height="22" width="21.5625" y="68" x="82.359375" class="er attributeBoxOdd"/><text style="dominant-baseline: middle; font-size: 10.2px;" transform="translate(87.359375,79)" y="0" x="0" id="text-entity-User-818c511a-4a32-5484-ba70-875d765a9175-attr-3-key" class="er entityLabel"/><rect height="22" width="93.2734375" y="68" x="103.921875" class="er attributeBoxOdd"/><text style="dominant-baseline: middle; font-size: 10.2px;" transform="translate(108.921875,79)" y="0" x="0" id="text-entity-User-818c511a-4a32-5484-ba70-875d765a9175-attr-3-comment" class="er entityLabel">server-generated</text></g><g transform="translate(20,221 )" id="entity-Usage-25e320a7-65ea-587d-acc1-542dd0e2d02d"><rect height="112" width="197.703125" y="0" x="0" class="er entityBox"/><text style="dominant-baseline: middle; text-anchor: middle; font-size: 12px;" transform="translate(98.8515625,12)" y="0" x="0" id="text-entity-Usage-25e320a7-65ea-587d-acc1-542dd0e2d02d" class="er entityLabel">Usage</text><rect height="22" width="42.7421875" y="24" x="0" class="er attributeBoxOdd"/><text style="dominant-baseline: middle; font-size: 10.2px;" transform="translate(5,35)" y="0" x="0" id="text-entity-Usage-25e320a7-65ea-587d-acc1-542dd0e2d02d-attr-1-type" class="er entityLabel">biging</text><rect height="22" width="45.0390625" y="24" x="42.7421875" class="er attributeBoxOdd"/><text style="dominant-baseline: middle; font-size: 10.2px;" transform="translate(47.7421875,35)" y="0" x="0" id="text-entity-Usage-25e320a7-65ea-587d-acc1-542dd0e2d02d-attr-1-name" class="er entityLabel">id</text><rect height="22" width="21.5625" y="24" x="87.78125" class="er attributeBoxOdd"/><text style="dominant-baseline: middle; font-size: 10.2px;" transform="translate(92.78125,35)" y="0" x="0" id="text-entity-Usage-25e320a7-65ea-587d-acc1-542dd0e2d02d-attr-1-key" class="er entityLabel">PK</text><rect height="22" width="88.359375" y="24" x="109.34375" class="er attributeBoxOdd"/><text style="dominant-baseline: middle; font-size: 10.2px;" transform="translate(114.34375,35)" y="0" x="0" id="text-entity-Usage-25e320a7-65ea-587d-acc1-542dd0e2d02d-attr-1-comment" class="er entityLabel">server-generated</text><rect height="22" width="42.7421875" y="46" x="0" class="er attributeBoxEven"/><text style="dominant-baseline: middle; font-size: 10.2px;" transform="translate(5,57)" y="0" x="0" id="text-entity-Usage-25e320a7-65ea-587d-acc1-542dd0e2d02d-attr-2-type" class="er entityLabel">string</text><rect height="22" width="45.0390625" y="46" x="42.7421875" class="er attributeBoxEven"/><text style="dominant-baseline: middle; font-size: 10.2px;" transform="translate(47.7421875,57)" y="0" x="0" id="text-entity-Usage-25e320a7-65ea-587d-acc1-542dd0e2d02d-attr-2-name" class="er entityLabel">date_</text><rect height="22" width="21.5625" y="46" x="87.78125" class="er attributeBoxEven"/><text style="dominant-baseline: middle; font-size: 10.2px;" transform="translate(92.78125,57)" y="0" x="0" id="text-entity-Usage-25e320a7-65ea-587d-acc1-542dd0e2d02d-attr-2-key" class="er entityLabel"/><rect height="22" width="88.359375" y="46" x="109.34375" class="er attributeBoxEven"/><text style="dominant-baseline: middle; font-size: 10.2px;" transform="translate(114.34375,57)" y="0" x="0" id="text-entity-Usage-25e320a7-65ea-587d-acc1-542dd0e2d02d-attr-2-comment" class="er entityLabel">NOT NULL</text><rect height="22" width="42.7421875" y="68" x="0" class="er attributeBoxOdd"/><text style="dominant-baseline: middle; font-size: 10.2px;" transform="translate(5,79)" y="0" x="0" id="text-entity-Usage-25e320a7-65ea-587d-acc1-542dd0e2d02d-attr-3-type" class="er entityLabel">integer</text><rect height="22" width="45.0390625" y="68" x="42.7421875" class="er attributeBoxOdd"/><text style="dominant-baseline: middle; font-size: 10.2px;" transform="translate(47.7421875,79)" y="0" x="0" id="text-entity-Usage-25e320a7-65ea-587d-acc1-542dd0e2d02d-attr-3-name" class="er entityLabel">count_</text><rect height="22" width="21.5625" y="68" x="87.78125" class="er attributeBoxOdd"/><text style="dominant-baseline: middle; font-size: 10.2px;" transform="translate(92.78125,79)" y="0" x="0" id="text-entity-Usage-25e320a7-65ea-587d-acc1-542dd0e2d02d-attr-3-key" class="er entityLabel"/><rect height="22" width="88.359375" y="68" x="109.34375" class="er attributeBoxOdd"/><text style="dominant-baseline: middle; font-size: 10.2px;" transform="translate(114.34375,79)" y="0" x="0" id="text-entity-Usage-25e320a7-65ea-587d-acc1-542dd0e2d02d-attr-3-comment" class="er entityLabel">NOT NULL</text><rect height="22" width="42.7421875" y="90" x="0" class="er attributeBoxEven"/><text style="dominant-baseline: middle; font-size: 10.2px;" transform="translate(5,101)" y="0" x="0" id="text-entity-Usage-25e320a7-65ea-587d-acc1-542dd0e2d02d-attr-4-type" class="er entityLabel">UUID</text><rect height="22" width="45.0390625" y="90" x="42.7421875" class="er attributeBoxEven"/><text style="dominant-baseline: middle; font-size: 10.2px;" transform="translate(47.7421875,101)" y="0" x="0" id="text-entity-Usage-25e320a7-65ea-587d-acc1-542dd0e2d02d-attr-4-name" class="er entityLabel">api_key</text><rect height="22" width="21.5625" y="90" x="87.78125" class="er attributeBoxEven"/><text style="dominant-baseline: middle; font-size: 10.2px;" transform="translate(92.78125,101)" y="0" x="0" id="text-entity-Usage-25e320a7-65ea-587d-acc1-542dd0e2d02d-attr-4-key" class="er entityLabel">FK</text><rect height="22" width="88.359375" y="90" x="109.34375" class="er attributeBoxEven"/><text style="dominant-baseline: middle; font-size: 10.2px;" transform="translate(114.34375,101)" y="0" x="0" id="text-entity-Usage-25e320a7-65ea-587d-acc1-542dd0e2d02d-attr-4-comment" class="er entityLabel">NOT NULL</text></g><g transform="translate(317.703125,210 )" id="entity-Request-7d68e257-b56e-5133-aee7-b462ea211ae9"><rect height="134" width="211.265625" y="0" x="0" class="er entityBox"/><text style="dominant-baseline: middle; text-anchor: middle; font-size: 12px;" transform="translate(105.6328125,12)" y="0" x="0" id="text-entity-Request-7d68e257-b56e-5133-aee7-b462ea211ae9" class="er entityLabel">Request</text><rect height="22" width="37.3203125" y="24" x="0" class="er attributeBoxOdd"/><text style="dominant-baseline: middle; font-size: 10.2px;" transform="translate(5,35)" y="0" x="0" id="text-entity-Request-7d68e257-b56e-5133-aee7-b462ea211ae9-attr-1-type" class="er entityLabel">biging</text><rect height="22" width="64.0234375" y="24" x="37.3203125" class="er attributeBoxOdd"/><text style="dominant-baseline: middle; font-size: 10.2px;" transform="translate(42.3203125,35)" y="0" x="0" id="text-entity-Request-7d68e257-b56e-5133-aee7-b462ea211ae9-attr-1-name" class="er entityLabel">id</text><rect height="22" width="21.5625" y="24" x="101.34375" class="er attributeBoxOdd"/><text style="dominant-baseline: middle; font-size: 10.2px;" transform="translate(106.34375,35)" y="0" x="0" id="text-entity-Request-7d68e257-b56e-5133-aee7-b462ea211ae9-attr-1-key" class="er entityLabel">PK</text><rect height="22" width="88.359375" y="24" x="122.90625" class="er attributeBoxOdd"/><text style="dominant-baseline: middle; font-size: 10.2px;" transform="translate(127.90625,35)" y="0" x="0" id="text-entity-Request-7d68e257-b56e-5133-aee7-b462ea211ae9-attr-1-comment" class="er entityLabel">server-generated</text><rect height="22" width="37.3203125" y="46" x="0" class="er attributeBoxEven"/><text style="dominant-baseline: middle; font-size: 10.2px;" transform="translate(5,57)" y="0" x="0" id="text-entity-Request-7d68e257-b56e-5133-aee7-b462ea211ae9-attr-2-type" class="er entityLabel">string</text><rect height="22" width="64.0234375" y="46" x="37.3203125" class="er attributeBoxEven"/><text style="dominant-baseline: middle; font-size: 10.2px;" transform="translate(42.3203125,57)" y="0" x="0" id="text-entity-Request-7d68e257-b56e-5133-aee7-b462ea211ae9-attr-2-name" class="er entityLabel">time</text><rect height="22" width="21.5625" y="46" x="101.34375" class="er attributeBoxEven"/><text style="dominant-baseline: middle; font-size: 10.2px;" transform="translate(106.34375,57)" y="0" x="0" id="text-entity-Request-7d68e257-b56e-5133-aee7-b462ea211ae9-attr-2-key" class="er entityLabel"/><rect height="22" width="88.359375" y="46" x="122.90625" class="er attributeBoxEven"/><text style="dominant-baseline: middle; font-size: 10.2px;" transform="translate(127.90625,57)" y="0" x="0" id="text-entity-Request-7d68e257-b56e-5133-aee7-b462ea211ae9-attr-2-comment" class="er entityLabel">NOT NULL</text><rect height="22" width="37.3203125" y="68" x="0" class="er attributeBoxOdd"/><text style="dominant-baseline: middle; font-size: 10.2px;" transform="translate(5,79)" y="0" x="0" id="text-entity-Request-7d68e257-b56e-5133-aee7-b462ea211ae9-attr-3-type" class="er entityLabel">jsonb</text><rect height="22" width="64.0234375" y="68" x="37.3203125" class="er attributeBoxOdd"/><text style="dominant-baseline: middle; font-size: 10.2px;" transform="translate(42.3203125,79)" y="0" x="0" id="text-entity-Request-7d68e257-b56e-5133-aee7-b462ea211ae9-attr-3-name" class="er entityLabel">headers</text><rect height="22" width="21.5625" y="68" x="101.34375" class="er attributeBoxOdd"/><text style="dominant-baseline: middle; font-size: 10.2px;" transform="translate(106.34375,79)" y="0" x="0" id="text-entity-Request-7d68e257-b56e-5133-aee7-b462ea211ae9-attr-3-key" class="er entityLabel"/><rect height="22" width="88.359375" y="68" x="122.90625" class="er attributeBoxOdd"/><text style="dominant-baseline: middle; font-size: 10.2px;" transform="translate(127.90625,79)" y="0" x="0" id="text-entity-Request-7d68e257-b56e-5133-aee7-b462ea211ae9-attr-3-comment" class="er entityLabel"/><rect height="22" width="37.3203125" y="90" x="0" class="er attributeBoxEven"/><text style="dominant-baseline: middle; font-size: 10.2px;" transform="translate(5,101)" y="0" x="0" id="text-entity-Request-7d68e257-b56e-5133-aee7-b462ea211ae9-attr-4-type" class="er entityLabel">UUID</text><rect height="22" width="64.0234375" y="90" x="37.3203125" class="er attributeBoxEven"/><text style="dominant-baseline: middle; font-size: 10.2px;" transform="translate(42.3203125,101)" y="0" x="0" id="text-entity-Request-7d68e257-b56e-5133-aee7-b462ea211ae9-attr-4-name" class="er entityLabel">api_key</text><rect height="22" width="21.5625" y="90" x="101.34375" class="er attributeBoxEven"/><text style="dominant-baseline: middle; font-size: 10.2px;" transform="translate(106.34375,101)" y="0" x="0" id="text-entity-Request-7d68e257-b56e-5133-aee7-b462ea211ae9-attr-4-key" class="er entityLabel">FK</text><rect height="22" width="88.359375" y="90" x="122.90625" class="er attributeBoxEven"/><text style="dominant-baseline: middle; font-size: 10.2px;" transform="translate(127.90625,101)" y="0" x="0" id="text-entity-Request-7d68e257-b56e-5133-aee7-b462ea211ae9-attr-4-comment" class="er entityLabel">NOT NULL</text><rect height="22" width="37.3203125" y="112" x="0" class="er attributeBoxOdd"/><text style="dominant-baseline: middle; font-size: 10.2px;" transform="translate(5,123)" y="0" x="0" id="text-entity-Request-7d68e257-b56e-5133-aee7-b462ea211ae9-attr-5-type" class="er entityLabel">biging</text><rect height="22" width="64.0234375" y="112" x="37.3203125" class="er attributeBoxOdd"/><text style="dominant-baseline: middle; font-size: 10.2px;" transform="translate(42.3203125,123)" y="0" x="0" id="text-entity-Request-7d68e257-b56e-5133-aee7-b462ea211ae9-attr-5-name" class="er entityLabel">response_id</text><rect height="22" width="21.5625" y="112" x="101.34375" class="er attributeBoxOdd"/><text style="dominant-baseline: middle; font-size: 10.2px;" transform="translate(106.34375,123)" y="0" x="0" id="text-entity-Request-7d68e257-b56e-5133-aee7-b462ea211ae9-attr-5-key" class="er entityLabel">FK</text><rect height="22" width="88.359375" y="112" x="122.90625" class="er attributeBoxOdd"/><text style="dominant-baseline: middle; font-size: 10.2px;" transform="translate(127.90625,123)" y="0" x="0" id="text-entity-Request-7d68e257-b56e-5133-aee7-b462ea211ae9-attr-5-comment" class="er entityLabel"/></g><g transform="translate(320.484375,444 )" id="entity-Response-79299989-89c0-500c-bb64-28b839e02fd3"><rect height="134" width="205.703125" y="0" x="0" class="er entityBox"/><text style="dominant-baseline: middle; text-anchor: middle; font-size: 12px;" transform="translate(102.8515625,12)" y="0" x="0" id="text-entity-Response-79299989-89c0-500c-bb64-28b839e02fd3" class="er entityLabel">Response</text><rect height="22" width="37.3203125" y="24" x="0" class="er attributeBoxOdd"/><text style="dominant-baseline: middle; font-size: 10.2px;" transform="translate(5,35)" y="0" x="0" id="text-entity-Response-79299989-89c0-500c-bb64-28b839e02fd3-attr-1-type" class="er entityLabel">biging</text><rect height="22" width="58.4609375" y="24" x="37.3203125" class="er attributeBoxOdd"/><text style="dominant-baseline: middle; font-size: 10.2px;" transform="translate(42.3203125,35)" y="0" x="0" id="text-entity-Response-79299989-89c0-500c-bb64-28b839e02fd3-attr-1-name" class="er entityLabel">id</text><rect height="22" width="21.5625" y="24" x="95.78125" class="er attributeBoxOdd"/><text style="dominant-baseline: middle; font-size: 10.2px;" transform="translate(100.78125,35)" y="0" x="0" id="text-entity-Response-79299989-89c0-500c-bb64-28b839e02fd3-attr-1-key" class="er entityLabel">PK</text><rect height="22" width="88.359375" y="24" x="117.34375" class="er attributeBoxOdd"/><text style="dominant-baseline: middle; font-size: 10.2px;" transform="translate(122.34375,35)" y="0" x="0" id="text-entity-Response-79299989-89c0-500c-bb64-28b839e02fd3-attr-1-comment" class="er entityLabel">server-generated</text><rect height="22" width="37.3203125" y="46" x="0" class="er attributeBoxEven"/><text style="dominant-baseline: middle; font-size: 10.2px;" transform="translate(5,57)" y="0" x="0" id="text-entity-Response-79299989-89c0-500c-bb64-28b839e02fd3-attr-2-type" class="er entityLabel">string</text><rect height="22" width="58.4609375" y="46" x="37.3203125" class="er attributeBoxEven"/><text style="dominant-baseline: middle; font-size: 10.2px;" transform="translate(42.3203125,57)" y="0" x="0" id="text-entity-Response-79299989-89c0-500c-bb64-28b839e02fd3-attr-2-name" class="er entityLabel">time</text><rect height="22" width="21.5625" y="46" x="95.78125" class="er attributeBoxEven"/><text style="dominant-baseline: middle; font-size: 10.2px;" transform="translate(100.78125,57)" y="0" x="0" id="text-entity-Response-79299989-89c0-500c-bb64-28b839e02fd3-attr-2-key" class="er entityLabel"/><rect height="22" width="88.359375" y="46" x="117.34375" class="er attributeBoxEven"/><text style="dominant-baseline: middle; font-size: 10.2px;" transform="translate(122.34375,57)" y="0" x="0" id="text-entity-Response-79299989-89c0-500c-bb64-28b839e02fd3-attr-2-comment" class="er entityLabel">NOT NULL</text><rect height="22" width="37.3203125" y="68" x="0" class="er attributeBoxOdd"/><text style="dominant-baseline: middle; font-size: 10.2px;" transform="translate(5,79)" y="0" x="0" id="text-entity-Response-79299989-89c0-500c-bb64-28b839e02fd3-attr-3-type" class="er entityLabel">jsonb</text><rect height="22" width="58.4609375" y="68" x="37.3203125" class="er attributeBoxOdd"/><text style="dominant-baseline: middle; font-size: 10.2px;" transform="translate(42.3203125,79)" y="0" x="0" id="text-entity-Response-79299989-89c0-500c-bb64-28b839e02fd3-attr-3-name" class="er entityLabel">headers</text><rect height="22" width="21.5625" y="68" x="95.78125" class="er attributeBoxOdd"/><text style="dominant-baseline: middle; font-size: 10.2px;" transform="translate(100.78125,79)" y="0" x="0" id="text-entity-Response-79299989-89c0-500c-bb64-28b839e02fd3-attr-3-key" class="er entityLabel"/><rect height="22" width="88.359375" y="68" x="117.34375" class="er attributeBoxOdd"/><text style="dominant-baseline: middle; font-size: 10.2px;" transform="translate(122.34375,79)" y="0" x="0" id="text-entity-Response-79299989-89c0-500c-bb64-28b839e02fd3-attr-3-comment" class="er entityLabel"/><rect height="22" width="37.3203125" y="90" x="0" class="er attributeBoxEven"/><text style="dominant-baseline: middle; font-size: 10.2px;" transform="translate(5,101)" y="0" x="0" id="text-entity-Response-79299989-89c0-500c-bb64-28b839e02fd3-attr-4-type" class="er entityLabel">jsonb</text><rect height="22" width="58.4609375" y="90" x="37.3203125" class="er attributeBoxEven"/><text style="dominant-baseline: middle; font-size: 10.2px;" transform="translate(42.3203125,101)" y="0" x="0" id="text-entity-Response-79299989-89c0-500c-bb64-28b839e02fd3-attr-4-name" class="er entityLabel">body</text><rect height="22" width="21.5625" y="90" x="95.78125" class="er attributeBoxEven"/><text style="dominant-baseline: middle; font-size: 10.2px;" transform="translate(100.78125,101)" y="0" x="0" id="text-entity-Response-79299989-89c0-500c-bb64-28b839e02fd3-attr-4-key" class="er entityLabel"/><rect height="22" width="88.359375" y="90" x="117.34375" class="er attributeBoxEven"/><text style="dominant-baseline: middle; font-size: 10.2px;" transform="translate(122.34375,101)" y="0" x="0" id="text-entity-Response-79299989-89c0-500c-bb64-28b839e02fd3-attr-4-comment" class="er entityLabel"/><rect height="22" width="37.3203125" y="112" x="0" class="er attributeBoxOdd"/><text style="dominant-baseline: middle; font-size: 10.2px;" transform="translate(5,123)" y="0" x="0" id="text-entity-Response-79299989-89c0-500c-bb64-28b839e02fd3-attr-5-type" class="er entityLabel">biging</text><rect height="22" width="58.4609375" y="112" x="37.3203125" class="er attributeBoxOdd"/><text style="dominant-baseline: middle; font-size: 10.2px;" transform="translate(42.3203125,123)" y="0" x="0" id="text-entity-Response-79299989-89c0-500c-bb64-28b839e02fd3-attr-5-name" class="er entityLabel">request_id</text><rect height="22" width="21.5625" y="112" x="95.78125" class="er attributeBoxOdd"/><text style="dominant-baseline: middle; font-size: 10.2px;" transform="translate(100.78125,123)" y="0" x="0" id="text-entity-Response-79299989-89c0-500c-bb64-28b839e02fd3-attr-5-key" class="er entityLabel">FK</text><rect height="22" width="88.359375" y="112" x="117.34375" class="er attributeBoxOdd"/><text style="dominant-baseline: middle; font-size: 10.2px;" transform="translate(122.34375,123)" y="0" x="0" id="text-entity-Response-79299989-89c0-500c-bb64-28b839e02fd3-attr-5-comment" class="er entityLabel">NOT NULL</text></g><rect height="14" width="95.296875" y="145.9889373779297" x="92.01031494140625" class="er relationshipLabelBox"/><text style="text-anchor: middle; dominant-baseline: middle; font-size: 12px;" y="152.9889373779297" x="139.65875244140625" id="rel1" class="er relationshipLabel">is associated with</text><rect height="14" width="97.625" y="141.9378662109375" x="350.5330505371094" class="er relationshipLabelBox"/><text style="text-anchor: middle; dominant-baseline: middle; font-size: 12px;" y="148.9378662109375" x="399.3455505371094" id="rel2" class="er relationshipLabel">makes/is made by</text><rect height="14" width="111.4296875" y="387" x="367.62109375" class="er relationshipLabelBox"/><text style="text-anchor: middle; dominant-baseline: middle; font-size: 12px;" y="394" x="423.3359375" id="rel3" class="er relationshipLabel">is fulfilled by/fulfills</text><text class="entityTitleText" y="-25" x="274.484375">npm-registry-proxy</text></svg>