<svg aria-labelledby="chart-title-mermaid-1683518757278" aria-roledescription="er" role="graphics-document document" viewBox="0 -62 480.1015625 660" style="max-width: 480.102px; background-color: rgb(0, 43, 54);" xmlns:xlink="http://www.w3.org/1999/xlink" xmlns="http://www.w3.org/2000/svg" width="100%" id="mermaid-1683518757278"><title id="chart-title-mermaid-1683518757278">npm-registry-proxy</title><style>#mermaid-1683518757278{font-family:"trebuchet ms",verdana,arial,sans-serif;font-size:16px;fill:#ccc;}#mermaid-1683518757278 .error-icon{fill:#a44141;}#mermaid-1683518757278 .error-text{fill:#ddd;stroke:#ddd;}#mermaid-1683518757278 .edge-thickness-normal{stroke-width:2px;}#mermaid-1683518757278 .edge-thickness-thick{stroke-width:3.5px;}#mermaid-1683518757278 .edge-pattern-solid{stroke-dasharray:0;}#mermaid-1683518757278 .edge-pattern-dashed{stroke-dasharray:3;}#mermaid-1683518757278 .edge-pattern-dotted{stroke-dasharray:2;}#mermaid-1683518757278 .marker{fill:lightgrey;stroke:lightgrey;}#mermaid-1683518757278 .marker.cross{stroke:lightgrey;}#mermaid-1683518757278 svg{font-family:"trebuchet ms",verdana,arial,sans-serif;font-size:16px;}#mermaid-1683518757278 .entityBox{fill:#1f2020;stroke:#81B1DB;}#mermaid-1683518757278 .attributeBoxOdd{fill:hsl(0, 0%, 32%);stroke:#81B1DB;}#mermaid-1683518757278 .attributeBoxEven{fill:hsl(0, 0%, 22%);stroke:#81B1DB;}#mermaid-1683518757278 .relationshipLabelBox{fill:hsl(20, 1.5873015873%, 12.3529411765%);opacity:0.7;background-color:hsl(20, 1.5873015873%, 12.3529411765%);}#mermaid-1683518757278 .relationshipLabelBox rect{opacity:0.5;}#mermaid-1683518757278 .relationshipLine{stroke:lightgrey;}#mermaid-1683518757278 .entityTitleText{text-anchor:middle;font-size:18px;fill:#ccc;}#mermaid-1683518757278 :root{--mermaid-font-family:"trebuchet ms",verdana,arial,sans-serif;}</style><g/><defs><marker orient="auto" markerHeight="18" markerWidth="18" refY="9" refX="0" id="ONLY_ONE_START"><path d="M9,0 L9,18 M15,0 L15,18" fill="none" stroke="gray"/></marker></defs><defs><marker orient="auto" markerHeight="18" markerWidth="18" refY="9" refX="18" id="ONLY_ONE_END"><path d="M3,0 L3,18 M9,0 L9,18" fill="none" stroke="gray"/></marker></defs><defs><marker orient="auto" markerHeight="18" markerWidth="30" refY="9" refX="0" id="ZERO_OR_ONE_START"><circle r="6" cy="9" cx="21" fill="white" stroke="gray"/><path d="M9,0 L9,18" fill="none" stroke="gray"/></marker></defs><defs><marker orient="auto" markerHeight="18" markerWidth="30" refY="9" refX="30" id="ZERO_OR_ONE_END"><circle r="6" cy="9" cx="9" fill="white" stroke="gray"/><path d="M21,0 L21,18" fill="none" stroke="gray"/></marker></defs><defs><marker orient="auto" markerHeight="36" markerWidth="45" refY="18" refX="18" id="ONE_OR_MORE_START"><path d="M0,18 Q 18,0 36,18 Q 18,36 0,18 M42,9 L42,27" fill="none" stroke="gray"/></marker></defs><defs><marker orient="auto" markerHeight="36" markerWidth="45" refY="18" refX="27" id="ONE_OR_MORE_END"><path d="M3,9 L3,27 M9,18 Q27,0 45,18 Q27,36 9,18" fill="none" stroke="gray"/></marker></defs><defs><marker orient="auto" markerHeight="36" markerWidth="57" refY="18" refX="18" id="ZERO_OR_MORE_START"><circle r="6" cy="18" cx="48" fill="white" stroke="gray"/><path d="M0,18 Q18,0 36,18 Q18,36 0,18" fill="none" stroke="gray"/></marker></defs><defs><marker orient="auto" markerHeight="36" markerWidth="57" refY="18" refX="39" id="ZERO_OR_MORE_END"><circle r="6" cy="18" cx="9" fill="white" stroke="gray"/><path d="M21,18 Q39,0 57,18 Q39,36 21,18" fill="none" stroke="gray"/></marker></defs><path style="stroke: gray; fill: none;" marker-start="url(#ONLY_ONE_START)" marker-end="url(#ZERO_OR_MORE_END)" stroke-dasharray="8,8" d="M172.62849506578948,110L160.78416255482458,118.33333333333333C148.93983004385964,126.66666666666667,125.25116502192982,143.33333333333334,113.40683251096492,161.83333333333334C101.5625,180.33333333333334,101.5625,200.66666666666666,101.5625,210.83333333333334L101.5625,221" class="er relationshipLine"/><path style="stroke: gray; fill: none;" marker-start="url(#ONLY_ONE_START)" marker-end="url(#ZERO_OR_MORE_END)" stroke-dasharray="8,8" d="M300.5472861842105,110L312.3916186951754,118.33333333333333C324.2359512061403,126.66666666666667,347.92461622807014,143.33333333333334,359.76894873903507,160C371.61328125,176.66666666666666,371.61328125,193.33333333333334,371.61328125,201.66666666666666L371.61328125,210" class="er relationshipLine"/><path style="stroke: gray; fill: none;" marker-start="url(#ONLY_ONE_START)" marker-end="url(#ONLY_ONE_END)" stroke-dasharray="8,8" d="M371.61328125,344L371.61328125,352.3333333333333C371.61328125,360.6666666666667,371.61328125,377.3333333333333,371.61328125,394C371.61328125,410.6666666666667,371.61328125,427.3333333333333,371.61328125,435.6666666666667L371.61328125,444" class="er relationshipLine"/><g transform="translate(134.201171875,20 )" id="entity-User-818c511a-4a32-5484-ba70-875d765a9175"><rect height="90" width="204.7734375" y="0" x="0" class="er entityBox"/><text style="dominant-baseline: middle; text-anchor: middle; font-size: 12px;" transform="translate(102.38671875,12)" y="0" x="0" id="text-entity-User-818c511a-4a32-5484-ba70-875d765a9175" class="er entityLabel">User</text><rect height="22" width="35.7421875" y="24" x="0" class="er attributeBoxOdd"/><text style="dominant-baseline: middle; font-size: 10.2px;" transform="translate(5,35)" y="0" x="0" id="text-entity-User-818c511a-4a32-5484-ba70-875d765a9175-attr-1-type" class="er entityLabel">UUID</text><rect height="22" width="54.1953125" y="24" x="35.7421875" class="er attributeBoxOdd"/><text style="dominant-baseline: middle; font-size: 10.2px;" transform="translate(40.7421875,35)" y="0" x="0" id="text-entity-User-818c511a-4a32-5484-ba70-875d765a9175-attr-1-name" class="er entityLabel">id</text><rect height="22" width="21.5625" y="24" x="89.9375" class="er attributeBoxOdd"/><text style="dominant-baseline: middle; font-size: 10.2px;" transform="translate(94.9375,35)" y="0" x="0" id="text-entity-User-818c511a-4a32-5484-ba70-875d765a9175-attr-1-key" class="er entityLabel">PK</text><rect height="22" width="93.2734375" y="24" x="111.5" class="er attributeBoxOdd"/><text style="dominant-baseline: middle; font-size: 10.2px;" transform="translate(116.5,35)" y="0" x="0" id="text-entity-User-818c511a-4a32-5484-ba70-875d765a9175-attr-1-comment" class="er entityLabel"/><rect height="22" width="35.7421875" y="46" x="0" class="er attributeBoxEven"/><text style="dominant-baseline: middle; font-size: 10.2px;" transform="translate(5,57)" y="0" x="0" id="text-entity-User-818c511a-4a32-5484-ba70-875d765a9175-attr-2-type" class="er entityLabel">string</text><rect height="22" width="54.1953125" y="46" x="35.7421875" class="er attributeBoxEven"/><text style="dominant-baseline: middle; font-size: 10.2px;" transform="translate(40.7421875,57)" y="0" x="0" id="text-entity-User-818c511a-4a32-5484-ba70-875d765a9175-attr-2-name" class="er entityLabel">username</text><rect height="22" width="21.5625" y="46" x="89.9375" class="er attributeBoxEven"/><text style="dominant-baseline: middle; font-size: 10.2px;" transform="translate(94.9375,57)" y="0" x="0" id="text-entity-User-818c511a-4a32-5484-ba70-875d765a9175-attr-2-key" class="er entityLabel"/><rect height="22" width="93.2734375" y="46" x="111.5" class="er attributeBoxEven"/><text style="dominant-baseline: middle; font-size: 10.2px;" transform="translate(116.5,57)" y="0" x="0" id="text-entity-User-818c511a-4a32-5484-ba70-875d765a9175-attr-2-comment" class="er entityLabel">NOT NULL UNIQUE</text><rect height="22" width="35.7421875" y="68" x="0" class="er attributeBoxOdd"/><text style="dominant-baseline: middle; font-size: 10.2px;" transform="translate(5,79)" y="0" x="0" id="text-entity-User-818c511a-4a32-5484-ba70-875d765a9175-attr-3-type" class="er entityLabel">string</text><rect height="22" width="54.1953125" y="68" x="35.7421875" class="er attributeBoxOdd"/><text style="dominant-baseline: middle; font-size: 10.2px;" transform="translate(40.7421875,79)" y="0" x="0" id="text-entity-User-818c511a-4a32-5484-ba70-875d765a9175-attr-3-name" class="er entityLabel">api_key</text><rect height="22" width="21.5625" y="68" x="89.9375" class="er attributeBoxOdd"/><text style="dominant-baseline: middle; font-size: 10.2px;" transform="translate(94.9375,79)" y="0" x="0" id="text-entity-User-818c511a-4a32-5484-ba70-875d765a9175-attr-3-key" class="er entityLabel"/><rect height="22" width="93.2734375" y="68" x="111.5" class="er attributeBoxOdd"/><text style="dominant-baseline: middle; font-size: 10.2px;" transform="translate(116.5,79)" y="0" x="0" id="text-entity-User-818c511a-4a32-5484-ba70-875d765a9175-attr-3-comment" class="er entityLabel">NOT NULL UNIQUE</text></g><g transform="translate(20,221 )" id="entity-Usage-25e320a7-65ea-587d-acc1-542dd0e2d02d"><rect height="112" width="163.125" y="0" x="0" class="er entityBox"/><text style="dominant-baseline: middle; text-anchor: middle; font-size: 12px;" transform="translate(81.5625,12)" y="0" x="0" id="text-entity-Usage-25e320a7-65ea-587d-acc1-542dd0e2d02d" class="er entityLabel">Usage</text><rect height="22" width="42.7421875" y="24" x="0" class="er attributeBoxOdd"/><text style="dominant-baseline: middle; font-size: 10.2px;" transform="translate(5,35)" y="0" x="0" id="text-entity-Usage-25e320a7-65ea-587d-acc1-542dd0e2d02d-attr-1-type" class="er entityLabel">UUID</text><rect height="22" width="43.171875" y="24" x="42.7421875" class="er attributeBoxOdd"/><text style="dominant-baseline: middle; font-size: 10.2px;" transform="translate(47.7421875,35)" y="0" x="0" id="text-entity-Usage-25e320a7-65ea-587d-acc1-542dd0e2d02d-attr-1-name" class="er entityLabel">id</text><rect height="22" width="21.5625" y="24" x="85.9140625" class="er attributeBoxOdd"/><text style="dominant-baseline: middle; font-size: 10.2px;" transform="translate(90.9140625,35)" y="0" x="0" id="text-entity-Usage-25e320a7-65ea-587d-acc1-542dd0e2d02d-attr-1-key" class="er entityLabel">PK</text><rect height="22" width="55.6484375" y="24" x="107.4765625" class="er attributeBoxOdd"/><text style="dominant-baseline: middle; font-size: 10.2px;" transform="translate(112.4765625,35)" y="0" x="0" id="text-entity-Usage-25e320a7-65ea-587d-acc1-542dd0e2d02d-attr-1-comment" class="er entityLabel"/><rect height="22" width="42.7421875" y="46" x="0" class="er attributeBoxEven"/><text style="dominant-baseline: middle; font-size: 10.2px;" transform="translate(5,57)" y="0" x="0" id="text-entity-Usage-25e320a7-65ea-587d-acc1-542dd0e2d02d-attr-2-type" class="er entityLabel">string</text><rect height="22" width="43.171875" y="46" x="42.7421875" class="er attributeBoxEven"/><text style="dominant-baseline: middle; font-size: 10.2px;" transform="translate(47.7421875,57)" y="0" x="0" id="text-entity-Usage-25e320a7-65ea-587d-acc1-542dd0e2d02d-attr-2-name" class="er entityLabel">date</text><rect height="22" width="21.5625" y="46" x="85.9140625" class="er attributeBoxEven"/><text style="dominant-baseline: middle; font-size: 10.2px;" transform="translate(90.9140625,57)" y="0" x="0" id="text-entity-Usage-25e320a7-65ea-587d-acc1-542dd0e2d02d-attr-2-key" class="er entityLabel"/><rect height="22" width="55.6484375" y="46" x="107.4765625" class="er attributeBoxEven"/><text style="dominant-baseline: middle; font-size: 10.2px;" transform="translate(112.4765625,57)" y="0" x="0" id="text-entity-Usage-25e320a7-65ea-587d-acc1-542dd0e2d02d-attr-2-comment" class="er entityLabel">NOT NULL</text><rect height="22" width="42.7421875" y="68" x="0" class="er attributeBoxOdd"/><text style="dominant-baseline: middle; font-size: 10.2px;" transform="translate(5,79)" y="0" x="0" id="text-entity-Usage-25e320a7-65ea-587d-acc1-542dd0e2d02d-attr-3-type" class="er entityLabel">integer</text><rect height="22" width="43.171875" y="68" x="42.7421875" class="er attributeBoxOdd"/><text style="dominant-baseline: middle; font-size: 10.2px;" transform="translate(47.7421875,79)" y="0" x="0" id="text-entity-Usage-25e320a7-65ea-587d-acc1-542dd0e2d02d-attr-3-name" class="er entityLabel">count</text><rect height="22" width="21.5625" y="68" x="85.9140625" class="er attributeBoxOdd"/><text style="dominant-baseline: middle; font-size: 10.2px;" transform="translate(90.9140625,79)" y="0" x="0" id="text-entity-Usage-25e320a7-65ea-587d-acc1-542dd0e2d02d-attr-3-key" class="er entityLabel"/><rect height="22" width="55.6484375" y="68" x="107.4765625" class="er attributeBoxOdd"/><text style="dominant-baseline: middle; font-size: 10.2px;" transform="translate(112.4765625,79)" y="0" x="0" id="text-entity-Usage-25e320a7-65ea-587d-acc1-542dd0e2d02d-attr-3-comment" class="er entityLabel">NOT NULL</text><rect height="22" width="42.7421875" y="90" x="0" class="er attributeBoxEven"/><text style="dominant-baseline: middle; font-size: 10.2px;" transform="translate(5,101)" y="0" x="0" id="text-entity-Usage-25e320a7-65ea-587d-acc1-542dd0e2d02d-attr-4-type" class="er entityLabel">UUID</text><rect height="22" width="43.171875" y="90" x="42.7421875" class="er attributeBoxEven"/><text style="dominant-baseline: middle; font-size: 10.2px;" transform="translate(47.7421875,101)" y="0" x="0" id="text-entity-Usage-25e320a7-65ea-587d-acc1-542dd0e2d02d-attr-4-name" class="er entityLabel">user_id</text><rect height="22" width="21.5625" y="90" x="85.9140625" class="er attributeBoxEven"/><text style="dominant-baseline: middle; font-size: 10.2px;" transform="translate(90.9140625,101)" y="0" x="0" id="text-entity-Usage-25e320a7-65ea-587d-acc1-542dd0e2d02d-attr-4-key" class="er entityLabel">FK</text><rect height="22" width="55.6484375" y="90" x="107.4765625" class="er attributeBoxEven"/><text style="dominant-baseline: middle; font-size: 10.2px;" transform="translate(112.4765625,101)" y="0" x="0" id="text-entity-Usage-25e320a7-65ea-587d-acc1-542dd0e2d02d-attr-4-comment" class="er entityLabel"/></g><g transform="translate(283.125,210 )" id="entity-Request-7d68e257-b56e-5133-aee7-b462ea211ae9"><rect height="134" width="176.9765625" y="0" x="0" class="er entityBox"/><text style="dominant-baseline: middle; text-anchor: middle; font-size: 12px;" transform="translate(88.48828125,12)" y="0" x="0" id="text-entity-Request-7d68e257-b56e-5133-aee7-b462ea211ae9" class="er entityLabel">Request</text><rect height="22" width="35.7421875" y="24" x="0" class="er attributeBoxOdd"/><text style="dominant-baseline: middle; font-size: 10.2px;" transform="translate(5,35)" y="0" x="0" id="text-entity-Request-7d68e257-b56e-5133-aee7-b462ea211ae9-attr-1-type" class="er entityLabel">UUID</text><rect height="22" width="64.0234375" y="24" x="35.7421875" class="er attributeBoxOdd"/><text style="dominant-baseline: middle; font-size: 10.2px;" transform="translate(40.7421875,35)" y="0" x="0" id="text-entity-Request-7d68e257-b56e-5133-aee7-b462ea211ae9-attr-1-name" class="er entityLabel">id</text><rect height="22" width="21.5625" y="24" x="99.765625" class="er attributeBoxOdd"/><text style="dominant-baseline: middle; font-size: 10.2px;" transform="translate(104.765625,35)" y="0" x="0" id="text-entity-Request-7d68e257-b56e-5133-aee7-b462ea211ae9-attr-1-key" class="er entityLabel">PK</text><rect height="22" width="55.6484375" y="24" x="121.328125" class="er attributeBoxOdd"/><text style="dominant-baseline: middle; font-size: 10.2px;" transform="translate(126.328125,35)" y="0" x="0" id="text-entity-Request-7d68e257-b56e-5133-aee7-b462ea211ae9-attr-1-comment" class="er entityLabel"/><rect height="22" width="35.7421875" y="46" x="0" class="er attributeBoxEven"/><text style="dominant-baseline: middle; font-size: 10.2px;" transform="translate(5,57)" y="0" x="0" id="text-entity-Request-7d68e257-b56e-5133-aee7-b462ea211ae9-attr-2-type" class="er entityLabel">string</text><rect height="22" width="64.0234375" y="46" x="35.7421875" class="er attributeBoxEven"/><text style="dominant-baseline: middle; font-size: 10.2px;" transform="translate(40.7421875,57)" y="0" x="0" id="text-entity-Request-7d68e257-b56e-5133-aee7-b462ea211ae9-attr-2-name" class="er entityLabel">time</text><rect height="22" width="21.5625" y="46" x="99.765625" class="er attributeBoxEven"/><text style="dominant-baseline: middle; font-size: 10.2px;" transform="translate(104.765625,57)" y="0" x="0" id="text-entity-Request-7d68e257-b56e-5133-aee7-b462ea211ae9-attr-2-key" class="er entityLabel"/><rect height="22" width="55.6484375" y="46" x="121.328125" class="er attributeBoxEven"/><text style="dominant-baseline: middle; font-size: 10.2px;" transform="translate(126.328125,57)" y="0" x="0" id="text-entity-Request-7d68e257-b56e-5133-aee7-b462ea211ae9-attr-2-comment" class="er entityLabel">NOT NULL</text><rect height="22" width="35.7421875" y="68" x="0" class="er attributeBoxOdd"/><text style="dominant-baseline: middle; font-size: 10.2px;" transform="translate(5,79)" y="0" x="0" id="text-entity-Request-7d68e257-b56e-5133-aee7-b462ea211ae9-attr-3-type" class="er entityLabel">jsonb</text><rect height="22" width="64.0234375" y="68" x="35.7421875" class="er attributeBoxOdd"/><text style="dominant-baseline: middle; font-size: 10.2px;" transform="translate(40.7421875,79)" y="0" x="0" id="text-entity-Request-7d68e257-b56e-5133-aee7-b462ea211ae9-attr-3-name" class="er entityLabel">headers</text><rect height="22" width="21.5625" y="68" x="99.765625" class="er attributeBoxOdd"/><text style="dominant-baseline: middle; font-size: 10.2px;" transform="translate(104.765625,79)" y="0" x="0" id="text-entity-Request-7d68e257-b56e-5133-aee7-b462ea211ae9-attr-3-key" class="er entityLabel"/><rect height="22" width="55.6484375" y="68" x="121.328125" class="er attributeBoxOdd"/><text style="dominant-baseline: middle; font-size: 10.2px;" transform="translate(126.328125,79)" y="0" x="0" id="text-entity-Request-7d68e257-b56e-5133-aee7-b462ea211ae9-attr-3-comment" class="er entityLabel"/><rect height="22" width="35.7421875" y="90" x="0" class="er attributeBoxEven"/><text style="dominant-baseline: middle; font-size: 10.2px;" transform="translate(5,101)" y="0" x="0" id="text-entity-Request-7d68e257-b56e-5133-aee7-b462ea211ae9-attr-4-type" class="er entityLabel">UUID</text><rect height="22" width="64.0234375" y="90" x="35.7421875" class="er attributeBoxEven"/><text style="dominant-baseline: middle; font-size: 10.2px;" transform="translate(40.7421875,101)" y="0" x="0" id="text-entity-Request-7d68e257-b56e-5133-aee7-b462ea211ae9-attr-4-name" class="er entityLabel">response_id</text><rect height="22" width="21.5625" y="90" x="99.765625" class="er attributeBoxEven"/><text style="dominant-baseline: middle; font-size: 10.2px;" transform="translate(104.765625,101)" y="0" x="0" id="text-entity-Request-7d68e257-b56e-5133-aee7-b462ea211ae9-attr-4-key" class="er entityLabel">FK</text><rect height="22" width="55.6484375" y="90" x="121.328125" class="er attributeBoxEven"/><text style="dominant-baseline: middle; font-size: 10.2px;" transform="translate(126.328125,101)" y="0" x="0" id="text-entity-Request-7d68e257-b56e-5133-aee7-b462ea211ae9-attr-4-comment" class="er entityLabel"/><rect height="22" width="35.7421875" y="112" x="0" class="er attributeBoxOdd"/><text style="dominant-baseline: middle; font-size: 10.2px;" transform="translate(5,123)" y="0" x="0" id="text-entity-Request-7d68e257-b56e-5133-aee7-b462ea211ae9-attr-5-type" class="er entityLabel">UUID</text><rect height="22" width="64.0234375" y="112" x="35.7421875" class="er attributeBoxOdd"/><text style="dominant-baseline: middle; font-size: 10.2px;" transform="translate(40.7421875,123)" y="0" x="0" id="text-entity-Request-7d68e257-b56e-5133-aee7-b462ea211ae9-attr-5-name" class="er entityLabel">user_id</text><rect height="22" width="21.5625" y="112" x="99.765625" class="er attributeBoxOdd"/><text style="dominant-baseline: middle; font-size: 10.2px;" transform="translate(104.765625,123)" y="0" x="0" id="text-entity-Request-7d68e257-b56e-5133-aee7-b462ea211ae9-attr-5-key" class="er entityLabel">FK</text><rect height="22" width="55.6484375" y="112" x="121.328125" class="er attributeBoxOdd"/><text style="dominant-baseline: middle; font-size: 10.2px;" transform="translate(126.328125,123)" y="0" x="0" id="text-entity-Request-7d68e257-b56e-5133-aee7-b462ea211ae9-attr-5-comment" class="er entityLabel"/></g><g transform="translate(285.90625,444 )" id="entity-Response-79299989-89c0-500c-bb64-28b839e02fd3"><rect height="134" width="171.4140625" y="0" x="0" class="er entityBox"/><text style="dominant-baseline: middle; text-anchor: middle; font-size: 12px;" transform="translate(85.70703125,12)" y="0" x="0" id="text-entity-Response-79299989-89c0-500c-bb64-28b839e02fd3" class="er entityLabel">Response</text><rect height="22" width="35.7421875" y="24" x="0" class="er attributeBoxOdd"/><text style="dominant-baseline: middle; font-size: 10.2px;" transform="translate(5,35)" y="0" x="0" id="text-entity-Response-79299989-89c0-500c-bb64-28b839e02fd3-attr-1-type" class="er entityLabel">UUID</text><rect height="22" width="58.4609375" y="24" x="35.7421875" class="er attributeBoxOdd"/><text style="dominant-baseline: middle; font-size: 10.2px;" transform="translate(40.7421875,35)" y="0" x="0" id="text-entity-Response-79299989-89c0-500c-bb64-28b839e02fd3-attr-1-name" class="er entityLabel">id</text><rect height="22" width="21.5625" y="24" x="94.203125" class="er attributeBoxOdd"/><text style="dominant-baseline: middle; font-size: 10.2px;" transform="translate(99.203125,35)" y="0" x="0" id="text-entity-Response-79299989-89c0-500c-bb64-28b839e02fd3-attr-1-key" class="er entityLabel">PK</text><rect height="22" width="55.6484375" y="24" x="115.765625" class="er attributeBoxOdd"/><text style="dominant-baseline: middle; font-size: 10.2px;" transform="translate(120.765625,35)" y="0" x="0" id="text-entity-Response-79299989-89c0-500c-bb64-28b839e02fd3-attr-1-comment" class="er entityLabel"/><rect height="22" width="35.7421875" y="46" x="0" class="er attributeBoxEven"/><text style="dominant-baseline: middle; font-size: 10.2px;" transform="translate(5,57)" y="0" x="0" id="text-entity-Response-79299989-89c0-500c-bb64-28b839e02fd3-attr-2-type" class="er entityLabel">string</text><rect height="22" width="58.4609375" y="46" x="35.7421875" class="er attributeBoxEven"/><text style="dominant-baseline: middle; font-size: 10.2px;" transform="translate(40.7421875,57)" y="0" x="0" id="text-entity-Response-79299989-89c0-500c-bb64-28b839e02fd3-attr-2-name" class="er entityLabel">time</text><rect height="22" width="21.5625" y="46" x="94.203125" class="er attributeBoxEven"/><text style="dominant-baseline: middle; font-size: 10.2px;" transform="translate(99.203125,57)" y="0" x="0" id="text-entity-Response-79299989-89c0-500c-bb64-28b839e02fd3-attr-2-key" class="er entityLabel"/><rect height="22" width="55.6484375" y="46" x="115.765625" class="er attributeBoxEven"/><text style="dominant-baseline: middle; font-size: 10.2px;" transform="translate(120.765625,57)" y="0" x="0" id="text-entity-Response-79299989-89c0-500c-bb64-28b839e02fd3-attr-2-comment" class="er entityLabel">NOT NULL</text><rect height="22" width="35.7421875" y="68" x="0" class="er attributeBoxOdd"/><text style="dominant-baseline: middle; font-size: 10.2px;" transform="translate(5,79)" y="0" x="0" id="text-entity-Response-79299989-89c0-500c-bb64-28b839e02fd3-attr-3-type" class="er entityLabel">jsonb</text><rect height="22" width="58.4609375" y="68" x="35.7421875" class="er attributeBoxOdd"/><text style="dominant-baseline: middle; font-size: 10.2px;" transform="translate(40.7421875,79)" y="0" x="0" id="text-entity-Response-79299989-89c0-500c-bb64-28b839e02fd3-attr-3-name" class="er entityLabel">headers</text><rect height="22" width="21.5625" y="68" x="94.203125" class="er attributeBoxOdd"/><text style="dominant-baseline: middle; font-size: 10.2px;" transform="translate(99.203125,79)" y="0" x="0" id="text-entity-Response-79299989-89c0-500c-bb64-28b839e02fd3-attr-3-key" class="er entityLabel"/><rect height="22" width="55.6484375" y="68" x="115.765625" class="er attributeBoxOdd"/><text style="dominant-baseline: middle; font-size: 10.2px;" transform="translate(120.765625,79)" y="0" x="0" id="text-entity-Response-79299989-89c0-500c-bb64-28b839e02fd3-attr-3-comment" class="er entityLabel"/><rect height="22" width="35.7421875" y="90" x="0" class="er attributeBoxEven"/><text style="dominant-baseline: middle; font-size: 10.2px;" transform="translate(5,101)" y="0" x="0" id="text-entity-Response-79299989-89c0-500c-bb64-28b839e02fd3-attr-4-type" class="er entityLabel">jsonb</text><rect height="22" width="58.4609375" y="90" x="35.7421875" class="er attributeBoxEven"/><text style="dominant-baseline: middle; font-size: 10.2px;" transform="translate(40.7421875,101)" y="0" x="0" id="text-entity-Response-79299989-89c0-500c-bb64-28b839e02fd3-attr-4-name" class="er entityLabel">body</text><rect height="22" width="21.5625" y="90" x="94.203125" class="er attributeBoxEven"/><text style="dominant-baseline: middle; font-size: 10.2px;" transform="translate(99.203125,101)" y="0" x="0" id="text-entity-Response-79299989-89c0-500c-bb64-28b839e02fd3-attr-4-key" class="er entityLabel"/><rect height="22" width="55.6484375" y="90" x="115.765625" class="er attributeBoxEven"/><text style="dominant-baseline: middle; font-size: 10.2px;" transform="translate(120.765625,101)" y="0" x="0" id="text-entity-Response-79299989-89c0-500c-bb64-28b839e02fd3-attr-4-comment" class="er entityLabel"/><rect height="22" width="35.7421875" y="112" x="0" class="er attributeBoxOdd"/><text style="dominant-baseline: middle; font-size: 10.2px;" transform="translate(5,123)" y="0" x="0" id="text-entity-Response-79299989-89c0-500c-bb64-28b839e02fd3-attr-5-type" class="er entityLabel">UUID</text><rect height="22" width="58.4609375" y="112" x="35.7421875" class="er attributeBoxOdd"/><text style="dominant-baseline: middle; font-size: 10.2px;" transform="translate(40.7421875,123)" y="0" x="0" id="text-entity-Response-79299989-89c0-500c-bb64-28b839e02fd3-attr-5-name" class="er entityLabel">request_id</text><rect height="22" width="21.5625" y="112" x="94.203125" class="er attributeBoxOdd"/><text style="dominant-baseline: middle; font-size: 10.2px;" transform="translate(99.203125,123)" y="0" x="0" id="text-entity-Response-79299989-89c0-500c-bb64-28b839e02fd3-attr-5-key" class="er entityLabel">FK</text><rect height="22" width="55.6484375" y="112" x="115.765625" class="er attributeBoxOdd"/><text style="dominant-baseline: middle; font-size: 10.2px;" transform="translate(120.765625,123)" y="0" x="0" id="text-entity-Response-79299989-89c0-500c-bb64-28b839e02fd3-attr-5-comment" class="er entityLabel">NOT NULL</text></g><rect height="14" width="95.296875" y="147.6205596923828" x="71.0114974975586" class="er relationshipLabelBox"/><text style="text-anchor: middle; dominant-baseline: middle; font-size: 12px;" y="154.6205596923828" x="118.6599349975586" id="rel1" class="er relationshipLabel">is associated with</text><rect height="14" width="97.625" y="143.26373291015625" x="302.80615234375" class="er relationshipLabelBox"/><text style="text-anchor: middle; dominant-baseline: middle; font-size: 12px;" y="150.26373291015625" x="351.61865234375" id="rel2" class="er relationshipLabel">makes/is made by</text><rect height="14" width="111.4296875" y="387" x="315.8984375" class="er relationshipLabelBox"/><text style="text-anchor: middle; dominant-baseline: middle; font-size: 12px;" y="394" x="371.61328125" id="rel3" class="er relationshipLabel">is fulfilled by/fulfills</text><text class="entityTitleText" y="-25" x="240.05078125">npm-registry-proxy</text></svg>